<mxfile host="app.diagrams.net" modified="2023-04-18T13:46:45.715Z" agent="Mozilla/5.0 (Windows NT 10.0; Win64; x64) AppleWebKit/537.36 (KHTML, like Gecko) Chrome/112.0.0.0 Safari/537.36" etag="5v-bSEwtwECNp76twNK-" version="21.1.8" type="github" pages="2">
  <diagram id="PnqUoocpPYvvQVGyVdqE" name="Requisição do Usuário">
    <mxGraphModel dx="1434" dy="723" grid="1" gridSize="10" guides="1" tooltips="1" connect="1" arrows="1" fold="1" page="1" pageScale="1" pageWidth="827" pageHeight="1169" math="0" shadow="0">
      <root>
        <mxCell id="0" />
        <mxCell id="1" parent="0" />
        <mxCell id="DYpYB5ZD8q-99wLmyNMS-36" value="CMS 2.0" style="rounded=0;whiteSpace=wrap;html=1;verticalAlign=top;fontStyle=1" parent="1" vertex="1">
          <mxGeometry x="488.87" y="322" width="210" height="440" as="geometry" />
        </mxCell>
        <mxCell id="DYpYB5ZD8q-99wLmyNMS-35" value="CMS 1.0" style="rounded=0;whiteSpace=wrap;html=1;verticalAlign=top;fontStyle=1" parent="1" vertex="1">
          <mxGeometry x="120" y="330" width="210" height="440" as="geometry" />
        </mxCell>
        <mxCell id="DYpYB5ZD8q-99wLmyNMS-27" style="edgeStyle=orthogonalEdgeStyle;rounded=0;orthogonalLoop=1;jettySize=auto;html=1;exitX=0.875;exitY=0.5;exitDx=0;exitDy=0;exitPerimeter=0;entryX=0;entryY=0.5;entryDx=0;entryDy=0;entryPerimeter=0;" parent="1" source="DYpYB5ZD8q-99wLmyNMS-1" target="DYpYB5ZD8q-99wLmyNMS-26" edge="1">
          <mxGeometry relative="1" as="geometry" />
        </mxCell>
        <mxCell id="DYpYB5ZD8q-99wLmyNMS-1" value="Azure" style="ellipse;shape=cloud;whiteSpace=wrap;html=1;verticalAlign=top;" parent="1" vertex="1">
          <mxGeometry x="211" y="70" width="405" height="270" as="geometry" />
        </mxCell>
        <mxCell id="DYpYB5ZD8q-99wLmyNMS-3" value="Cluster K8s" style="rounded=0;whiteSpace=wrap;html=1;verticalAlign=top;" parent="1" vertex="1">
          <mxGeometry x="290" y="150" width="270" height="120" as="geometry" />
        </mxCell>
        <mxCell id="DYpYB5ZD8q-99wLmyNMS-4" value="CMS" style="rounded=0;whiteSpace=wrap;html=1;verticalAlign=top;" parent="1" vertex="1">
          <mxGeometry x="310" y="175" width="230" height="75" as="geometry" />
        </mxCell>
        <mxCell id="DYpYB5ZD8q-99wLmyNMS-5" value="Drupal" style="rounded=0;whiteSpace=wrap;html=1;verticalAlign=top;fillColor=#f8cecc;strokeColor=#b85450;" parent="1" vertex="1">
          <mxGeometry x="320" y="210" width="80" height="32.5" as="geometry" />
        </mxCell>
        <mxCell id="DYpYB5ZD8q-99wLmyNMS-7" style="edgeStyle=orthogonalEdgeStyle;rounded=0;orthogonalLoop=1;jettySize=auto;html=1;" parent="1" source="DYpYB5ZD8q-99wLmyNMS-6" target="DYpYB5ZD8q-99wLmyNMS-5" edge="1">
          <mxGeometry relative="1" as="geometry" />
        </mxCell>
        <mxCell id="DYpYB5ZD8q-99wLmyNMS-6" value="40 PODS em PRD" style="rounded=0;whiteSpace=wrap;html=1;verticalAlign=middle;" parent="1" vertex="1">
          <mxGeometry x="110" y="196.25" width="120" height="60" as="geometry" />
        </mxCell>
        <mxCell id="DYpYB5ZD8q-99wLmyNMS-10" style="edgeStyle=orthogonalEdgeStyle;rounded=0;orthogonalLoop=1;jettySize=auto;html=1;" parent="1" source="DYpYB5ZD8q-99wLmyNMS-8" target="DYpYB5ZD8q-99wLmyNMS-9" edge="1">
          <mxGeometry relative="1" as="geometry" />
        </mxCell>
        <mxCell id="DYpYB5ZD8q-99wLmyNMS-8" value="Marco" style="shape=umlActor;verticalLabelPosition=bottom;verticalAlign=top;html=1;outlineConnect=0;" parent="1" vertex="1">
          <mxGeometry x="210" y="635" width="30" height="60" as="geometry" />
        </mxCell>
        <mxCell id="DYpYB5ZD8q-99wLmyNMS-12" style="edgeStyle=orthogonalEdgeStyle;rounded=0;orthogonalLoop=1;jettySize=auto;html=1;" parent="1" source="DYpYB5ZD8q-99wLmyNMS-9" target="DYpYB5ZD8q-99wLmyNMS-11" edge="1">
          <mxGeometry relative="1" as="geometry" />
        </mxCell>
        <mxCell id="DYpYB5ZD8q-99wLmyNMS-9" value="delboniauriemo.com.br" style="text;html=1;strokeColor=none;fillColor=none;align=center;verticalAlign=middle;whiteSpace=wrap;rounded=0;" parent="1" vertex="1">
          <mxGeometry x="205" y="570" width="40" height="20" as="geometry" />
        </mxCell>
        <mxCell id="DYpYB5ZD8q-99wLmyNMS-15" style="edgeStyle=orthogonalEdgeStyle;rounded=0;orthogonalLoop=1;jettySize=auto;html=1;" parent="1" source="DYpYB5ZD8q-99wLmyNMS-11" target="DYpYB5ZD8q-99wLmyNMS-13" edge="1">
          <mxGeometry relative="1" as="geometry" />
        </mxCell>
        <mxCell id="DYpYB5ZD8q-99wLmyNMS-11" value="Zona DNS" style="rounded=0;whiteSpace=wrap;html=1;verticalAlign=middle;fillColor=#fff2cc;strokeColor=#d6b656;" parent="1" vertex="1">
          <mxGeometry x="169.5" y="520" width="111" height="20" as="geometry" />
        </mxCell>
        <mxCell id="DYpYB5ZD8q-99wLmyNMS-17" style="edgeStyle=orthogonalEdgeStyle;rounded=0;orthogonalLoop=1;jettySize=auto;html=1;entryX=0.55;entryY=0.95;entryDx=0;entryDy=0;entryPerimeter=0;" parent="1" source="DYpYB5ZD8q-99wLmyNMS-13" target="DYpYB5ZD8q-99wLmyNMS-1" edge="1">
          <mxGeometry relative="1" as="geometry" />
        </mxCell>
        <mxCell id="DYpYB5ZD8q-99wLmyNMS-13" value="WAF&lt;br&gt;Web Application Firewall" style="rounded=0;whiteSpace=wrap;html=1;verticalAlign=middle;fillColor=#fff2cc;strokeColor=#d6b656;" parent="1" vertex="1">
          <mxGeometry x="152.75" y="430" width="144.5" height="60" as="geometry" />
        </mxCell>
        <mxCell id="DYpYB5ZD8q-99wLmyNMS-18" style="edgeStyle=orthogonalEdgeStyle;rounded=0;orthogonalLoop=1;jettySize=auto;html=1;" parent="1" source="DYpYB5ZD8q-99wLmyNMS-19" target="DYpYB5ZD8q-99wLmyNMS-21" edge="1">
          <mxGeometry relative="1" as="geometry" />
        </mxCell>
        <mxCell id="DYpYB5ZD8q-99wLmyNMS-19" value="Marco" style="shape=umlActor;verticalLabelPosition=bottom;verticalAlign=top;html=1;outlineConnect=0;" parent="1" vertex="1">
          <mxGeometry x="578.87" y="634.5" width="30" height="60" as="geometry" />
        </mxCell>
        <mxCell id="DYpYB5ZD8q-99wLmyNMS-20" style="edgeStyle=orthogonalEdgeStyle;rounded=0;orthogonalLoop=1;jettySize=auto;html=1;" parent="1" source="DYpYB5ZD8q-99wLmyNMS-21" target="DYpYB5ZD8q-99wLmyNMS-23" edge="1">
          <mxGeometry relative="1" as="geometry" />
        </mxCell>
        <mxCell id="DYpYB5ZD8q-99wLmyNMS-21" value="delboniauriemo.com.br/exames" style="text;html=1;strokeColor=#6c8ebf;fillColor=#dae8fc;align=center;verticalAlign=middle;whiteSpace=wrap;rounded=0;" parent="1" vertex="1">
          <mxGeometry x="494" y="569.5" width="199.75" height="20" as="geometry" />
        </mxCell>
        <mxCell id="DYpYB5ZD8q-99wLmyNMS-22" style="edgeStyle=orthogonalEdgeStyle;rounded=0;orthogonalLoop=1;jettySize=auto;html=1;" parent="1" source="DYpYB5ZD8q-99wLmyNMS-23" target="DYpYB5ZD8q-99wLmyNMS-24" edge="1">
          <mxGeometry relative="1" as="geometry" />
        </mxCell>
        <mxCell id="DYpYB5ZD8q-99wLmyNMS-23" value="Zona DNS" style="rounded=0;whiteSpace=wrap;html=1;verticalAlign=middle;fillColor=#fff2cc;strokeColor=#d6b656;" parent="1" vertex="1">
          <mxGeometry x="538.37" y="519.5" width="111" height="20" as="geometry" />
        </mxCell>
        <mxCell id="DYpYB5ZD8q-99wLmyNMS-25" style="edgeStyle=orthogonalEdgeStyle;rounded=0;orthogonalLoop=1;jettySize=auto;html=1;entryX=0.55;entryY=0.95;entryDx=0;entryDy=0;entryPerimeter=0;" parent="1" source="DYpYB5ZD8q-99wLmyNMS-24" target="DYpYB5ZD8q-99wLmyNMS-1" edge="1">
          <mxGeometry relative="1" as="geometry" />
        </mxCell>
        <mxCell id="DYpYB5ZD8q-99wLmyNMS-24" value="WAF&lt;br&gt;Web Application Firewall" style="rounded=0;whiteSpace=wrap;html=1;verticalAlign=middle;fillColor=#fff2cc;strokeColor=#d6b656;" parent="1" vertex="1">
          <mxGeometry x="521.62" y="429.5" width="144.5" height="60" as="geometry" />
        </mxCell>
        <mxCell id="DYpYB5ZD8q-99wLmyNMS-29" style="edgeStyle=orthogonalEdgeStyle;rounded=0;orthogonalLoop=1;jettySize=auto;html=1;" parent="1" source="DYpYB5ZD8q-99wLmyNMS-26" target="DYpYB5ZD8q-99wLmyNMS-28" edge="1">
          <mxGeometry relative="1" as="geometry" />
        </mxCell>
        <mxCell id="DYpYB5ZD8q-99wLmyNMS-26" value="Cloudfront" style="outlineConnect=0;dashed=0;verticalLabelPosition=bottom;verticalAlign=top;align=center;html=1;shape=mxgraph.aws3.cloudfront;fillColor=#F58536;gradientColor=none;" parent="1" vertex="1">
          <mxGeometry x="655.37" y="175.98" width="47.75" height="58.05" as="geometry" />
        </mxCell>
        <mxCell id="DYpYB5ZD8q-99wLmyNMS-28" value="S3" style="outlineConnect=0;dashed=0;verticalLabelPosition=bottom;verticalAlign=top;align=center;html=1;shape=mxgraph.aws3.s3;fillColor=#E05243;gradientColor=none;" parent="1" vertex="1">
          <mxGeometry x="750" y="170.01" width="57.58" height="70" as="geometry" />
        </mxCell>
      </root>
    </mxGraphModel>
  </diagram>
  <diagram id="PXfu8kFQRLBZVvVu_4TA" name="Pipeline 1.0">
    <mxGraphModel dx="1422" dy="754" grid="1" gridSize="10" guides="1" tooltips="1" connect="1" arrows="1" fold="1" page="1" pageScale="1" pageWidth="827" pageHeight="1169" math="0" shadow="0">
      <root>
        <mxCell id="NRJxJCUX1IL1kAqRTh47-0" />
        <mxCell id="NRJxJCUX1IL1kAqRTh47-1" parent="NRJxJCUX1IL1kAqRTh47-0" />
        <mxCell id="NRJxJCUX1IL1kAqRTh47-5" value="Azure" style="ellipse;shape=cloud;whiteSpace=wrap;html=1;verticalAlign=top;" vertex="1" parent="NRJxJCUX1IL1kAqRTh47-1">
          <mxGeometry x="142" y="33.75" width="566" height="385" as="geometry" />
        </mxCell>
        <mxCell id="NRJxJCUX1IL1kAqRTh47-6" value="Cluster K8s" style="rounded=0;whiteSpace=wrap;html=1;verticalAlign=top;" vertex="1" parent="NRJxJCUX1IL1kAqRTh47-1">
          <mxGeometry x="290" y="150" width="270" height="120" as="geometry" />
        </mxCell>
        <mxCell id="NRJxJCUX1IL1kAqRTh47-7" value="CMS" style="rounded=0;whiteSpace=wrap;html=1;verticalAlign=top;" vertex="1" parent="NRJxJCUX1IL1kAqRTh47-1">
          <mxGeometry x="310" y="175" width="230" height="75" as="geometry" />
        </mxCell>
        <mxCell id="NRJxJCUX1IL1kAqRTh47-41" style="edgeStyle=orthogonalEdgeStyle;rounded=0;orthogonalLoop=1;jettySize=auto;html=1;entryX=0;entryY=0.5;entryDx=0;entryDy=0;" edge="1" parent="NRJxJCUX1IL1kAqRTh47-1" source="NRJxJCUX1IL1kAqRTh47-8" target="NRJxJCUX1IL1kAqRTh47-36">
          <mxGeometry relative="1" as="geometry" />
        </mxCell>
        <mxCell id="NRJxJCUX1IL1kAqRTh47-8" value="Drupal" style="rounded=0;whiteSpace=wrap;html=1;verticalAlign=top;" vertex="1" parent="NRJxJCUX1IL1kAqRTh47-1">
          <mxGeometry x="320" y="210" width="80" height="32.5" as="geometry" />
        </mxCell>
        <mxCell id="NRJxJCUX1IL1kAqRTh47-9" style="edgeStyle=orthogonalEdgeStyle;rounded=0;orthogonalLoop=1;jettySize=auto;html=1;" edge="1" parent="NRJxJCUX1IL1kAqRTh47-1" source="NRJxJCUX1IL1kAqRTh47-10" target="NRJxJCUX1IL1kAqRTh47-8">
          <mxGeometry relative="1" as="geometry" />
        </mxCell>
        <mxCell id="NRJxJCUX1IL1kAqRTh47-10" value="40 PODS em PRD" style="rounded=0;whiteSpace=wrap;html=1;verticalAlign=middle;" vertex="1" parent="NRJxJCUX1IL1kAqRTh47-1">
          <mxGeometry x="110" y="196.25" width="120" height="60" as="geometry" />
        </mxCell>
        <mxCell id="NRJxJCUX1IL1kAqRTh47-27" style="edgeStyle=orthogonalEdgeStyle;rounded=0;orthogonalLoop=1;jettySize=auto;html=1;" edge="1" parent="NRJxJCUX1IL1kAqRTh47-1" source="NRJxJCUX1IL1kAqRTh47-28">
          <mxGeometry relative="1" as="geometry">
            <mxPoint x="750" y="205" as="targetPoint" />
          </mxGeometry>
        </mxCell>
        <mxCell id="NRJxJCUX1IL1kAqRTh47-33" style="edgeStyle=orthogonalEdgeStyle;rounded=0;orthogonalLoop=1;jettySize=auto;html=1;" edge="1" parent="NRJxJCUX1IL1kAqRTh47-1" source="NRJxJCUX1IL1kAqRTh47-30" target="NRJxJCUX1IL1kAqRTh47-32">
          <mxGeometry relative="1" as="geometry" />
        </mxCell>
        <mxCell id="NRJxJCUX1IL1kAqRTh47-34" value="Pull Request" style="edgeLabel;html=1;align=center;verticalAlign=middle;resizable=0;points=[];" vertex="1" connectable="0" parent="NRJxJCUX1IL1kAqRTh47-33">
          <mxGeometry x="0.2152" relative="1" as="geometry">
            <mxPoint x="1" as="offset" />
          </mxGeometry>
        </mxCell>
        <mxCell id="NRJxJCUX1IL1kAqRTh47-30" value="Desenvolvedor" style="shape=umlActor;verticalLabelPosition=bottom;verticalAlign=top;html=1;outlineConnect=0;" vertex="1" parent="NRJxJCUX1IL1kAqRTh47-1">
          <mxGeometry x="127.5" y="570" width="30" height="60" as="geometry" />
        </mxCell>
        <mxCell id="NRJxJCUX1IL1kAqRTh47-37" style="edgeStyle=orthogonalEdgeStyle;rounded=0;orthogonalLoop=1;jettySize=auto;html=1;entryX=0.5;entryY=1;entryDx=0;entryDy=0;" edge="1" parent="NRJxJCUX1IL1kAqRTh47-1" source="NRJxJCUX1IL1kAqRTh47-31" target="NRJxJCUX1IL1kAqRTh47-36">
          <mxGeometry relative="1" as="geometry" />
        </mxCell>
        <mxCell id="NRJxJCUX1IL1kAqRTh47-43" style="edgeStyle=orthogonalEdgeStyle;rounded=0;orthogonalLoop=1;jettySize=auto;html=1;entryX=0;entryY=0.75;entryDx=0;entryDy=0;" edge="1" parent="NRJxJCUX1IL1kAqRTh47-1" source="NRJxJCUX1IL1kAqRTh47-31" target="NRJxJCUX1IL1kAqRTh47-42">
          <mxGeometry relative="1" as="geometry">
            <Array as="points">
              <mxPoint x="309" y="530" />
            </Array>
          </mxGeometry>
        </mxCell>
        <mxCell id="NRJxJCUX1IL1kAqRTh47-31" value="Jenkins" style="rounded=0;whiteSpace=wrap;html=1;verticalAlign=middle;" vertex="1" parent="NRJxJCUX1IL1kAqRTh47-1">
          <mxGeometry x="259" y="429.75" width="100" height="40" as="geometry" />
        </mxCell>
        <mxCell id="NRJxJCUX1IL1kAqRTh47-35" style="edgeStyle=orthogonalEdgeStyle;rounded=0;orthogonalLoop=1;jettySize=auto;html=1;" edge="1" parent="NRJxJCUX1IL1kAqRTh47-1" source="NRJxJCUX1IL1kAqRTh47-32" target="NRJxJCUX1IL1kAqRTh47-31">
          <mxGeometry relative="1" as="geometry" />
        </mxCell>
        <mxCell id="NRJxJCUX1IL1kAqRTh47-32" value="main / master" style="rounded=0;whiteSpace=wrap;html=1;verticalAlign=middle;" vertex="1" parent="NRJxJCUX1IL1kAqRTh47-1">
          <mxGeometry x="100" y="428.75" width="85" height="42.5" as="geometry" />
        </mxCell>
        <mxCell id="NRJxJCUX1IL1kAqRTh47-36" value="Docker Registry&lt;br&gt;Azure" style="rounded=0;whiteSpace=wrap;html=1;verticalAlign=middle;" vertex="1" parent="NRJxJCUX1IL1kAqRTh47-1">
          <mxGeometry x="390" y="290" width="90" height="45" as="geometry" />
        </mxCell>
        <mxCell id="NRJxJCUX1IL1kAqRTh47-40" style="edgeStyle=orthogonalEdgeStyle;rounded=0;orthogonalLoop=1;jettySize=auto;html=1;entryX=1;entryY=0.5;entryDx=0;entryDy=0;" edge="1" parent="NRJxJCUX1IL1kAqRTh47-1" source="NRJxJCUX1IL1kAqRTh47-38" target="NRJxJCUX1IL1kAqRTh47-8">
          <mxGeometry relative="1" as="geometry">
            <Array as="points">
              <mxPoint x="620" y="450" />
              <mxPoint x="620" y="226" />
            </Array>
          </mxGeometry>
        </mxCell>
        <mxCell id="NRJxJCUX1IL1kAqRTh47-38" value="Jenkins" style="rounded=0;whiteSpace=wrap;html=1;verticalAlign=middle;fillColor=#f8cecc;strokeColor=#b85450;" vertex="1" parent="NRJxJCUX1IL1kAqRTh47-1">
          <mxGeometry x="490" y="429.75" width="100" height="40" as="geometry" />
        </mxCell>
        <mxCell id="NRJxJCUX1IL1kAqRTh47-44" style="edgeStyle=orthogonalEdgeStyle;rounded=0;orthogonalLoop=1;jettySize=auto;html=1;" edge="1" parent="NRJxJCUX1IL1kAqRTh47-1" source="NRJxJCUX1IL1kAqRTh47-42" target="NRJxJCUX1IL1kAqRTh47-38">
          <mxGeometry relative="1" as="geometry" />
        </mxCell>
        <mxCell id="NRJxJCUX1IL1kAqRTh47-42" value="devopstools" style="rounded=0;whiteSpace=wrap;html=1;verticalAlign=middle;fillColor=#f8cecc;strokeColor=#b85450;" vertex="1" parent="NRJxJCUX1IL1kAqRTh47-1">
          <mxGeometry x="385" y="500" width="100" height="40" as="geometry" />
        </mxCell>
      </root>
    </mxGraphModel>
  </diagram>
</mxfile>
